<?xml version="1.0" standalone="no"?>
<!DOCTYPE svg PUBLIC "-//W3C//DTD SVG 20010904//EN"
 "http://www.w3.org/TR/2001/REC-SVG-20010904/DTD/svg10.dtd">
<svg version="1.0" xmlns="http://www.w3.org/2000/svg"
 width="16.000000pt" height="16.000000pt" viewBox="0 0 16.000000 16.000000"
 preserveAspectRatio="xMidYMid meet">
<metadata>
Created by potrace 1.11, written by Peter Selinger 2001-2013
</metadata>
<g transform="translate(0.000000,16.000000) scale(0.003125,-0.003125)"
fill="#000000" stroke="none">
<path d="M817 4749 c-21 -17 -44 -43 -51 -57 -12 -23 -14 -366 -14 -2122 -1
-1311 3 -2106 9 -2126 5 -17 25 -46 45 -65 l35 -34 1687 -3 c928 -1 1702 0
1720 3 48 9 97 57 110 107 17 66 14 3482 -3 3523 -15 37 -740 767 -784 789
-27 14 -170 16 -1374 16 l-1343 0 -37 -31z m2526 -278 c4 -1 7 -135 7 -300 0
-293 0 -299 23 -332 12 -18 37 -43 54 -55 30 -20 42 -21 332 -20 l301 1 0
-1557 c0 -857 -3 -1558 -7 -1559 -59 -5 -1293 -2 -1293 4 0 5 -5 5 -11 1 -17
-10 -1589 -11 -1589 0 0 5 -6 4 -12 0 -7 -5 -29 -9 -48 -9 l-35 0 -3 1910 c-1
1134 2 1911 7 1914 7 5 2235 6 2274 2z m407 -399 c-46 -2 -86 1 -89 7 -5 7 -6
157 -2 168 1 2 40 -36 88 -85 l86 -87 -83 -3z"/>
<path d="M1440 3048 c-3 -329 -1 -1291 3 -1294 2 -3 36 -5 76 -5 39 -1 69 -4
66 -8 -2 -4 2 -8 10 -8 8 0 12 4 9 9 -8 13 20 9 35 -4 11 -11 12 -10 7 0 -6
10 12 12 86 11 52 -2 96 -7 100 -13 5 -7 8 -7 8 2 0 8 22 12 76 12 57 0 73 -3
68 -12 -6 -10 -4 -10 8 0 13 10 17 10 21 0 4 -10 6 -10 6 0 1 6 6 12 12 12 5
0 7 -4 4 -10 -3 -5 -1 -10 4 -10 6 0 11 5 11 11 0 7 31 9 93 7 70 -2 91 -6 89
-16 -1 -8 2 -11 8 -7 6 3 8 11 5 16 -4 5 -1 9 4 9 6 0 11 -6 11 -12 0 -10 2
-10 8 -1 4 7 32 12 65 12 31 0 55 -4 53 -8 -3 -3 4 -7 14 -7 10 0 16 4 14 8
-3 4 24 8 60 8 42 0 66 -4 69 -12 4 -10 6 -10 6 0 1 6 9 12 19 12 10 0 24 -6
31 -12 11 -10 13 -10 7 0 -4 7 -2 12 6 12 8 0 20 -6 27 -12 9 -8 12 -9 7 -1
-4 8 17 11 75 12 44 0 78 -3 75 -7 -3 -5 1 -9 9 -9 8 0 12 4 9 9 -3 4 24 8 60
8 46 0 66 -4 66 -12 0 -10 2 -10 9 0 8 14 81 14 81 0 0 -4 5 -8 11 -8 5 0 8 4
5 9 -9 15 174 13 192 -1 13 -11 14 -11 8 0 -6 10 12 12 86 11 52 -2 96 -7 100
-13 5 -7 8 -7 8 2 0 8 22 12 76 12 57 0 73 -3 68 -12 -6 -10 -4 -10 8 0 13 10
17 10 21 0 4 -10 6 -10 6 0 1 6 6 12 12 12 5 0 7 -4 4 -10 -3 -5 -1 -10 4 -10
6 0 11 5 11 10 0 6 11 10 25 10 19 0 25 5 25 23 1 35 1 1258 0 1300 l0 37
-1130 0 -1130 0 0 -62z m230 -102 c0 -7 3 -7 8 -1 4 6 38 11 75 11 59 2 68 0
63 -15 -5 -12 -2 -11 9 3 15 20 15 20 30 0 15 -19 15 -19 8 1 -6 18 -5 19 12
5 10 -8 16 -10 12 -4 -4 7 5 11 24 12 16 0 27 -3 24 -8 -3 -5 -1 -12 5 -15 6
-4 9 -1 8 7 -4 18 54 18 68 0 9 -12 12 -13 19 -2 5 9 4 11 -3 6 -7 -4 -12 -2
-12 4 0 6 8 10 18 8 9 -2 16 -10 14 -17 -1 -7 2 -10 8 -6 6 3 8 10 6 14 -3 4
31 7 75 7 68 1 79 -2 74 -15 -4 -13 -2 -13 8 1 15 19 87 22 87 4 0 -7 3 -7 8
-1 10 15 105 16 114 2 6 -9 8 -9 8 0 0 8 24 12 80 12 59 0 79 -3 73 -12 -5 -8
-2 -8 9 1 18 14 80 13 90 -3 5 -7 8 -7 8 1 0 5 18 11 41 13 30 1 39 -1 33 -10
-5 -8 -3 -9 7 -4 22 14 63 15 71 2 6 -9 8 -9 8 1 0 6 9 12 21 12 11 0 18 -4
14 -9 -3 -5 0 -13 6 -17 8 -4 9 -3 5 5 -11 17 24 26 46 12 11 -7 17 -8 14 -2
-4 5 2 9 14 8 11 -1 20 -6 20 -12 0 -6 3 -6 8 1 8 12 134 15 126 3 -2 -4 0
-11 6 -14 6 -4 9 -1 8 7 -4 18 54 18 68 0 9 -12 12 -13 19 -2 5 9 4 11 -3 6
-7 -4 -12 -2 -12 4 0 6 8 10 18 8 9 -2 16 -10 14 -17 -1 -7 2 -10 8 -6 6 3 8
10 6 14 -3 4 31 7 75 7 68 1 79 -2 74 -15 -4 -14 -3 -14 8 0 16 21 77 20 93 0
9 -11 12 -12 19 -1 5 9 4 11 -3 6 -7 -4 -12 -2 -12 3 0 6 7 11 15 11 13 0 15
-67 14 -530 l0 -530 -979 0 -980 0 0 528 0 528 40 1 c24 0 40 -4 40 -11z"/>
<path d="M1614 2938 c-4 -7 -4 -10 1 -6 4 4 15 2 24 -5 14 -11 14 -10 2 6 -16
20 -18 21 -27 5z"/>
<path d="M1775 2940 c3 -5 8 -10 11 -10 2 0 4 5 4 10 0 6 -5 10 -11 10 -5 0
-7 -4 -4 -10z"/>
<path d="M2175 2940 c3 -5 8 -10 11 -10 2 0 4 5 4 10 0 6 -5 10 -11 10 -5 0
-7 -4 -4 -10z"/>
<path d="M2620 2940 c-8 -5 -10 -10 -5 -10 6 0 17 5 25 10 8 5 11 10 5 10 -5
0 -17 -5 -25 -10z"/>
<path d="M3375 2940 c3 -5 8 -10 11 -10 2 0 4 5 4 10 0 6 -5 10 -11 10 -5 0
-7 -4 -4 -10z"/>
<path d="M2582 1724 c10 -10 20 -16 22 -13 3 3 -5 11 -17 18 -21 13 -21 12 -5
-5z"/>
<path d="M3190 1729 c0 -5 5 -7 10 -4 6 3 10 8 10 11 0 2 -4 4 -10 4 -5 0 -10
-5 -10 -11z"/>
</g>
</svg>
