<?xml version="1.0" standalone="no"?>
<!DOCTYPE svg PUBLIC "-//W3C//DTD SVG 20010904//EN"
 "http://www.w3.org/TR/2001/REC-SVG-20010904/DTD/svg10.dtd">
<svg version="1.0" xmlns="http://www.w3.org/2000/svg"
 width="295.000000pt" height="295.000000pt" viewBox="0 0 295.000000 295.000000"
 preserveAspectRatio="xMidYMid meet">
<metadata>
Created by potrace 1.11, written by Peter Selinger 2001-2013
</metadata>
<g transform="translate(0.000000,295.000000) scale(0.100000,-0.100000)"
fill="#000000" stroke="none">
<path d="M827 2409 c-170 -40 -302 -216 -283 -378 13 -105 38 -162 101 -230
80 -86 208 -129 320 -108 22 5 22 25 -2 70 l-14 28 -18 -22 c-23 -28 -43 -21
-63 23 -34 73 -34 78 11 78 46 0 45 -1 29 35 -9 19 -19 25 -44 25 -18 0 -36 4
-39 10 -5 8 -7 172 -3 220 1 13 16 16 79 15 43 0 81 -3 84 -7 10 -10 14 -63 6
-77 -5 -8 -28 -11 -69 -9 -33 2 -59 0 -56 -3 3 -5 64 -24 147 -46 12 -3 60 -7
107 -8 81 -3 85 -4 85 -26 0 -22 39 -49 52 -36 26 27 13 180 -22 253 -29 61
-107 136 -172 166 -68 30 -170 42 -236 27z m120 -93 c10 -17 19 -42 20 -56 4
-25 2 -26 -56 -25 -33 0 -62 3 -65 6 -9 9 15 72 36 96 25 26 43 20 65 -21z
m-152 -16 c-8 -16 -15 -36 -15 -45 0 -16 -2 -16 -60 -19 -45 -3 -54 2 -38 22
18 21 99 72 115 72 11 0 10 -6 -2 -30z m286 -2 c71 -51 74 -67 9 -64 -22 1
-45 7 -52 14 -7 7 -9 12 -6 12 4 0 0 16 -8 35 -19 46 -3 47 57 3z m-326 -168
l0 -45 -73 -2 -73 -2 4 32 c7 60 12 64 80 62 l62 -1 0 -44z m427 41 c7 -1 28
-58 28 -76 0 -8 -24 -12 -74 -12 l-74 -1 -5 41 c-3 23 -1 44 4 48 8 5 91 5
121 0z m-422 -198 l0 -44 -67 3 -67 3 -12 40 -11 40 56 5 c93 8 101 5 101 -47z
m30 -156 l18 -48 -21 7 c-28 9 -66 35 -97 69 l-25 26 54 -3 53 -3 18 -48z"/>
<path d="M1476 1530 l-728 -729 27 -27 27 -27 731 731 731 731 -24 26 c-13 14
-26 25 -29 24 -3 0 -334 -328 -735 -729z"/>
<path d="M943 1979 c3 -8 28 -72 56 -143 29 -71 54 -133 57 -138 4 -6 19 9 34
32 23 35 30 39 42 28 8 -7 29 -26 47 -43 l33 -30 29 35 30 35 -48 42 -48 43
34 29 35 28 -25 9 c-13 4 -26 9 -29 9 -3 1 -52 16 -110 34 -152 47 -144 45
-137 30z"/>
<path d="M2072 1199 c-71 -35 -73 -44 -73 -300 -1 -233 6 -259 73 -289 32 -15
66 -20 131 -20 l87 0 0 35 0 35 -90 0 c-126 0 -124 -4 -124 245 1 257 -6 246
157 247 l57 0 0 34 0 34 -87 0 c-69 0 -97 -4 -131 -21z"/>
</g>
</svg>
