<?xml version="1.0" standalone="no"?>
<!DOCTYPE svg PUBLIC "-//W3C//DTD SVG 20010904//EN"
 "http://www.w3.org/TR/2001/REC-SVG-20010904/DTD/svg10.dtd">
<svg version="1.0" xmlns="http://www.w3.org/2000/svg"
 width="414.000000pt" height="414.000000pt" viewBox="0 0 414.000000 414.000000"
 preserveAspectRatio="xMidYMid meet">
<metadata>
Created by potrace 1.11, written by Peter Selinger 2001-2013
</metadata>
<g transform="translate(0.000000,414.000000) scale(0.100000,-0.100000)"
fill="#000000" stroke="none">
<path d="M283 4040 c-129 -5 -133 -6 -160 -33 l-28 -27 -5 -183 c-5 -162 -6
-3163 -2 -3510 l2 -137 33 -36 33 -36 1874 1 c1031 1 1893 3 1915 6 49 5 83
23 90 45 3 10 8 69 11 131 7 152 11 3406 4 3581 l-5 138 -31 31 -32 32 -1783
1 c-981 0 -1844 -1 -1916 -4z m1652 -1169 c90 -20 217 -65 222 -78 9 -22 -8
-180 -20 -198 -11 -14 -21 -13 -102 16 -229 79 -413 80 -575 2 -73 -35 -179
-142 -218 -218 -57 -115 -72 -183 -72 -334 0 -228 44 -357 164 -476 76 -76
144 -115 241 -140 120 -31 309 -12 470 46 47 17 88 29 91 27 7 -8 17 -90 18
-153 l1 -60 -59 -23 c-127 -51 -201 -64 -366 -65 -179 0 -247 13 -378 74 -163
75 -280 188 -357 344 -67 136 -88 232 -89 400 -1 160 5 211 40 313 47 140 113
243 220 340 80 74 233 153 344 177 41 10 80 18 85 20 22 8 293 -4 340 -14z
m1010 -497 c87 -31 164 -127 194 -243 10 -37 16 -139 27 -436 9 -248 14 -264
103 -291 34 -10 36 -12 34 -50 -2 -21 -8 -61 -14 -88 l-12 -49 -71 6 c-120 10
-178 40 -227 117 -18 27 -9 30 -99 -37 -100 -77 -254 -102 -380 -64 -62 19
-82 31 -130 79 -77 78 -104 147 -97 253 3 46 14 95 27 128 55 126 240 220 495
251 55 7 109 13 120 15 17 2 20 9 17 41 -7 89 -47 154 -108 174 -52 18 -171
19 -234 3 -30 -8 -83 -30 -117 -49 -73 -41 -74 -40 -94 70 -10 59 -9 69 5 85
24 27 145 80 218 96 86 18 277 13 343 -11z"/>
<path d="M2792 1788 c-188 -21 -285 -96 -285 -217 0 -106 53 -161 155 -161 76
0 154 30 223 86 l55 45 0 130 0 130 -42 -3 c-24 -1 -72 -6 -106 -10z"/>
</g>
</svg>
